<svg width="54" height="70" viewBox="0 0 54 70" fill="none" xmlns="http://www.w3.org/2000/svg">
<circle cx="19" cy="24" r="11" fill="white"/>
<path d="M18.0611 24.605L16.3961 26.315V29H14.4461V18.5H16.3961V23.885L21.5861 18.5H23.7761L19.3661 23.195L24.0461 29H21.7661L18.0611 24.605Z" fill="#458FF6"/>
<path d="M10.91 69.6119H10.0463C4.50677 69.6119 0 65.1052 0 59.5656C0 54.0261 4.50677 49.5193 10.0463 49.5193H16.865V43.033H20.9563V49.5193H35.8665C39.7737 49.5193 43.0159 47.0988 43.934 43.4964L47.8985 44.5066C46.5108 49.9521 41.6755 53.6106 35.8665 53.6106H20.9561V59.5656C20.9561 65.1052 16.4495 69.6119 10.91 69.6119ZM10.0462 53.6106C6.76254 53.6106 4.0911 56.282 4.0911 59.5656C4.0911 62.8493 6.76254 65.5207 10.0462 65.5207H10.9098C14.1934 65.5207 16.8649 62.8493 16.8649 59.5656V53.6106H10.0462Z" fill="white"/>
<path d="M46.3218 46.0645C42.3866 46.0645 39.1849 42.8629 39.1849 38.9277C39.1849 34.9923 42.3866 31.7906 46.3218 31.7906C50.2571 31.7906 53.4587 34.9923 53.4587 38.9277C53.4588 42.863 50.2571 46.0645 46.3218 46.0645ZM46.3218 35.8819C44.6425 35.8819 43.2761 37.2482 43.2761 38.9277C43.2761 40.607 44.6425 41.9733 46.3218 41.9733C48.0012 41.9733 49.3674 40.607 49.3674 38.9277C49.3676 37.2482 48.0012 35.8819 46.3218 35.8819V35.8819Z" fill="white"/>
<path d="M18.8196 45.0787C8.74321 45.0787 0.545471 36.881 0.545471 26.8045V8.81539C0.545471 5.19533 3.49061 2.25018 7.11054 2.25018H9.09533V6.34142H7.11054C5.74652 6.34142 4.63671 7.45123 4.63671 8.81539V26.8045C4.63671 34.6251 10.9991 40.9875 18.8196 40.9875C26.6402 40.9875 33.0026 34.6251 33.0026 26.8045V9.06222C33.0026 7.69821 31.8928 6.58839 30.5288 6.58839H28.5061V2.49716H30.5288C34.1487 2.49716 37.0938 5.4423 37.0938 9.06222V26.8045C37.0938 36.8808 28.8959 45.0787 18.8196 45.0787Z" fill="white"/>
<path d="M25.3239 0C22.9552 0 21.0281 1.92711 21.0281 4.29579C21.0281 6.66448 22.9552 8.59159 25.3239 8.59159H29.5288V0H25.3239Z" fill="white"/>
<path d="M12.2774 0H8.07254V8.59159H12.2774C14.6461 8.59159 16.5732 6.66448 16.5732 4.29579C16.5732 1.92711 14.6462 0 12.2774 0Z" fill="white"/>
</svg>
